<?xml version="1.0" encoding="UTF-8"?>
<svg width="26px" height="26px" viewBox="0 0 26 26" version="1.1" xmlns="http://www.w3.org/2000/svg" xmlns:xlink="http://www.w3.org/1999/xlink">
    <!-- Generator: Sketch 63.1 (92452) - https://sketch.com -->
    <title>icon-desktop-cart-selected</title>
    <desc>Created with Sketch.</desc>
    <g id="Page-3" stroke="none" stroke-width="1" fill="none" fill-rule="evenodd">
        <g id="M2All_icons" transform="translate(-383.000000, -190.000000)" fill="#E51636">
            <g id="icon-desktop-cart-selected" transform="translate(383.381300, 190.467200)">
                <path d="M5.148,4.229 L6.68,15.078 L18.141,15.016 C19.551,15.016 20.532,13.914 20.961,12.626 L23.535,4.229 L5.148,4.229 Z M0.796,1.533 C0.368,1.533 0,1.226 0,0.797 C0,0.369 0.368,0 0.796,0 L2.022,0 C3.493,0 4.658,1.042 4.841,2.452 L4.903,2.697 L24.577,2.697 C25.128,2.697 25.496,3.188 25.312,3.678 L22.431,13.055 C21.819,15.016 20.287,16.548 18.141,16.61 L6.864,16.61 L6.925,17.039 C7.048,17.652 7.477,18.204 8.151,18.204 L20.777,18.204 C21.206,18.204 21.574,18.571 21.574,19 C21.574,19.429 21.206,19.796 20.777,19.796 L8.151,19.796 C6.742,19.796 5.638,18.632 5.393,17.284 L3.309,2.697 C3.248,2.023 2.697,1.533 2.022,1.533 L0.796,1.533 Z" id="Fill-201"></path>
                <path d="M8.3355,21.8198 C7.9675,21.8198 7.5995,22.1868 7.5995,22.5548 C7.5995,22.9838 7.9675,23.3518 8.3355,23.3518 C8.7645,23.3518 9.1315,22.9838 9.1315,22.5548 C9.1315,22.1868 8.7645,21.8198 8.3355,21.8198 M8.3355,20.2878 C9.6215,20.2878 10.6635,21.3288 10.6635,22.5548 C10.6635,23.8418 9.6215,24.8838 8.3355,24.8838 C7.1085,24.8838 6.0665,23.8418 6.0665,22.5548 C6.0665,21.3288 7.1085,20.2878 8.3355,20.2878" id="Fill-203"></path>
                <path d="M19.3667,21.8198 C18.9377,21.8198 18.5697,22.1868 18.5697,22.5548 C18.5697,22.9838 18.9377,23.3518 19.3667,23.3518 C19.7967,23.3518 20.1017,22.9838 20.1017,22.5548 C20.1017,22.1868 19.7967,21.8198 19.3667,21.8198 M19.3667,20.2878 C20.6537,20.2878 21.6957,21.3288 21.6957,22.5548 C21.6957,23.8418 20.6537,24.8838 19.3667,24.8838 C18.0797,24.8838 17.0377,23.8418 17.0377,22.5548 C17.0377,21.3288 18.0797,20.2878 19.3667,20.2878" id="Fill-205"></path>
            </g>
        </g>
    </g>
</svg>